<svg width="2140" height="1018" viewBox="0 0 2140 1018" xmlns="http://www.w3.org/2000/svg" fill="#ffffff"
     fill-rule="evenodd">
    <clipPath id="a-cut">
        <rect x="-218" y="-518" width="380" height="1036" />
    </clipPath>

    <g transform="translate(425.06 517.5)" clip-path="url(#a-cut)">
        <circle cx="0" cy="0" r="177" fill="none" stroke="#53b877" stroke-width="79.5" />
        <rect x="93.09" y="-225.5" width="68.85" height="434.86" fill="#53b877" />
    </g>

    <clipPath id="corner-cut">
        <rect x="0" y="0" width="220" height="240" />
    </clipPath>

    <g>
        <g transform="rotate(180) translate(-165 -498)">
            <rect x="92" y="-226" width="70" height="500" fill="#53b877" />
            <rect x="-148" y="414" width="100" height="70" fill="#53b877" />
            <g transform="translate(-50 272)" clip-path="url(#corner-cut)">
                <circle cx="0" cy="0" r="177" fill="none" stroke="#53b877" stroke-width="70" />
            </g>
            <rect x="-30" y="128" width="123" height="70" fill="#53b877" />
        </g>

        <g transform="translate(933 20)" fill="#53b877">
            <rect x="0" y="0" width="70" height="216" />
            <rect x="-146" y="0" width="216" height="70" />
        </g>

        <g transform="translate(842 517.5)">
            <rect x="92" y="-226" width="70" height="500" fill="#53b877" />
            <rect x="-148" y="414" width="100" height="70" fill="#53b877" />
            <g transform="translate(-50 272)" clip-path="url(#corner-cut)">
                <circle cx="0" cy="0" r="177" fill="none" stroke="#53b877" stroke-width="70" />
            </g>
            <g clip-path="url(#a-cut)">
                <circle cx="0" cy="0" r="177" fill="none" stroke="#53b877" stroke-width="79.5" />
            </g>
        </g>

        <g transform="rotate(180) translate(-74 -1000)" fill="#53b877">
            <rect x="0" y="0" width="70" height="216" />
            <rect x="-146" y="0" width="216" height="70" />
        </g>
    </g>

    <g transform="translate(1253 517.5)">
        <circle cx="0" cy="0" r="177" fill="none" stroke="#53b877" stroke-width="79.5" />
    </g>

    <clipPath id="r-cut">
        <rect x="-170" y="-220" width="220" height="150" />
    </clipPath>

    <g transform="translate(1693 517.5)">
        <rect x="-176" y="-225.5" width="68.85" height="434.86" fill="#53b877" />
        <g clip-path="url(#r-cut)">
            <circle cx="0" cy="0" r="177" fill="none" stroke="#53b877" stroke-width="79.5" />
        </g>
    </g>

    <g transform="translate(1977 517.5)" clip-path="url(#a-cut)">
        <circle cx="0" cy="0" r="177" fill="none" stroke="#53b877" stroke-width="79.5" />
        <rect x="93.09" y="-509" width="68.85" height="719" fill="#53b877"/>
    </g>
</svg>
