<svg width="2140" height="1018" viewBox="0 0 2140 1018" xmlns="http://www.w3.org/2000/svg" fill="#ffffff"
     fill-rule="evenodd">
    <defs>
        <g id="f-base">
            <rect x="206" y="14" width="100" height="70" />
            <rect x="6" y="222" width="70" height="500" />
            <g transform="translate(218 226)" clip-path="url(#f-cut)">
                <circle cx="0" cy="0" r="177" fill="none" stroke="#ffffff" stroke-width="70" />
            </g>
        </g>
        <g id="angle">
            <rect x="0" y="0" width="70" height="216" />
            <rect x="-146" y="0" width="216" height="70" />
        </g>
        <clipPath id="a-cut">
            <rect x="-218" y="-518" width="380" height="1036" />
        </clipPath>
        <clipPath id="f-cut">
            <rect x="-230" y="-220" width="220" height="220" />
        </clipPath>
        <clipPath id="r-cut">
            <rect x="-170" y="-220" width="220" height="150" />
        </clipPath>
    </defs>

    <g transform="translate(425.06 517.5)" clip-path="url(#a-cut)">
        <circle cx="0" cy="0" r="177" fill="none" stroke="#ffffff" stroke-width="79.5" />
        <rect x="93.09" y="-225.5" width="68.85" height="434.86" />
    </g>

    <g>
        <use href="#f-base" />
        <rect x="70" y="300" width="123" height="70" />

        <use href="#angle" transform="translate(924 12)" />

        <g transform="translate(830 517.5)" clip-path="url(#a-cut)">
            <circle cx="0" cy="0" r="177" fill="none" stroke="#ffffff" stroke-width="79.5" />
        </g>

        <use href="#f-base" transform="rotate(180 500 512)" />

        <use href="#angle" transform="rotate(180 500 512) translate(924 12)" />
    </g>

    <g transform="translate(1253 517.5)">
        <circle cx="0" cy="0" r="177" fill="none" stroke="#ffffff" stroke-width="79.5" />
    </g>

    <g transform="translate(1693 517.5)">
        <rect x="-176" y="-225.5" width="68.85" height="434.86" />
        <g clip-path="url(#r-cut)">
            <circle cx="0" cy="0" r="177" fill="none" stroke="#ffffff" stroke-width="79.5" />
        </g>
    </g>

    <g transform="translate(1950 517.5)" clip-path="url(#a-cut)">
        <circle cx="0" cy="0" r="177" fill="none" stroke="#ffffff" stroke-width="79.5" />
        <rect x="93.09" y="-509" width="68.85" height="719" />
    </g>
</svg>
