<svg width="2140" height="1018" viewBox="0 0 2140 1018" xmlns="http://www.w3.org/2000/svg" fill="#FFFFFF"
     fill-rule="evenodd">
    <circle cx="1253" cy="517.5" r="177" fill="none" stroke="#ffffff" stroke-width="79.5" />
    <path d="M4 805 77.27 805 77.27 944.73 208 944.73 208 1018 4 1018Z"/>
    <path d="M997 218 924.09 218 924.09 77.91 794 77.91 794 5 997 5Z"/>
    <clipPath id="a-kutt">
        <rect x="0" y="0" width="587" height="1018" />
    </clipPath>
    <g clip-path="url(#a-kutt)">
        <circle cx="425.06" cy="517.5" r="177" fill="none" stroke="#ffffff" stroke-width="79.5" />
        <rect x="518.15" y="292" width="68.85" height="434.86" />
    </g>
    <path d="M1977.94 380.17C1902.04 380.17 1840.52 441.77 1840.52 517.77 1840.52 593.77 1902.04 655.37 1977.94 655.37 2006.4 655.37 2032.84 646.71 2054.77 631.87L2070.19 619.13 2070.19 416.41 2054.77 403.67C2032.84 388.83 2006.4 380.17 1977.94 380.17ZM2070.19 8 2139 8 2139 726.87 2070.19 726.87 2070.19 713.68 2062.38 717.93C2036.42 728.92 2007.89 735 1977.94 735 1858.13 735 1761 637.74 1761 517.77 1761 397.8 1858.13 300.54 1977.94 300.54 2007.89 300.54 2036.42 306.62 2062.38 317.61L2070.19 321.86Z"/>
    <path d="M841.84 379.78C765.98 379.78 704.49 441.41 704.49 517.42 704.49 593.44 765.98 655.06 841.84 655.06 870.29 655.06 896.72 646.4 918.64 631.56L932.22 620.33 932.22 414.52 918.64 403.29C896.72 388.45 870.29 379.78 841.84 379.78ZM932.22 292 1001 292 1001 805.31 996.9 837.43C979.57 922.3 912.86 989.15 828.16 1006.52L793.66 1009.91 640.75 1009.91 640.75 940.99 793.66 940.99 814.03 937.69C871.35 925.94 916.49 880.71 928.22 823.28L932.22 801.29 932.22 714.39 926.25 717.64C900.3 728.63 871.78 734.71 841.84 734.71 722.08 734.71 625 637.43 625 517.42 625 397.42 722.08 300.14 841.84 300.14 871.78 300.14 900.3 306.22 926.25 317.21L932.22 320.46Z"/>
    <path d="M1687.14 292C1702.12 292 1716.75 293.52 1730.87 296.42L1745 300.82 1745 384.93 1740.64 382.55C1724.2 375.58 1706.12 371.73 1687.14 371.73 1649.19 371.73 1614.84 387.15 1589.97 412.08L1580.81 423.2 1580.81 727 1512 727 1512 425.54 1512 382.11 1512 292 1580.81 292 1580.81 321 1602.69 309.09C1628.65 298.09 1657.19 292 1687.14 292Z"/>
    <path d="M211.11 5 211.11 5 304 5 304 77.28 208.78 77.28 190.72 77.28C133.34 89.02 88.14 134.24 76.4 191.64L74.19 213.62 74.19 300.17 194.43 300.17 194.43 369.06 74.19 369.06 74.19 725 4 725 4 213.62 7.64 177.49C24.99 92.66 91.78 25.84 176.57 8.48Z"/>
</svg>
