<svg width="2140" height="1018" viewBox="1164 641 2140 1018" xmlns="http://www.w3.org/2000/svg" fill="#FFFFFF" fill-rule="evenodd"><path d="M2200 1158.5C2200 1038.38 2297.15 941 2417 941 2536.85 941 2634 1038.38 2634 1158.5 2634 1278.62 2536.85 1376 2417 1376 2297.15 1376 2200 1278.62 2200 1158.5ZM2279.54 1158.5C2279.54 1234.69 2341.09 1296.46 2417 1296.46 2492.92 1296.46 2554.46 1234.69 2554.46 1158.5 2554.46 1082.31 2492.92 1020.54 2417 1020.54 2341.09 1020.54 2279.54 1082.31 2279.54 1158.5Z"/><path d="M1168 1446 1241.27 1446 1241.27 1585.73 1372 1585.73 1372 1659 1168 1659Z"/><path d="M2161 859 2088.09 859 2088.09 718.907 1958 718.907 1958 646 2161 646Z"/><path d="M1589.06 1020.84C1513.13 1020.84 1451.57 1082.51 1451.57 1158.57 1451.57 1234.64 1513.13 1296.3 1589.06 1296.3 1617.54 1296.3 1643.99 1287.63 1665.94 1272.78L1682.15 1259.38 1682.15 1057.76 1665.94 1044.36C1643.99 1029.51 1617.54 1020.84 1589.06 1020.84ZM1682.15 933 1751 933 1751 1367.86 1682.15 1367.86 1682.15 1354.24 1673.56 1358.91C1647.59 1369.92 1619.03 1376 1589.06 1376 1469.18 1376 1372 1278.65 1372 1158.57 1372 1038.49 1469.18 941.141 1589.06 941.141 1619.03 941.141 1647.59 947.225 1673.56 958.228L1682.15 962.902Z"/><path d="M3141.94 1021.17C3066.04 1021.17 3004.52 1082.77 3004.52 1158.77 3004.52 1234.77 3066.04 1296.37 3141.94 1296.37 3170.4 1296.37 3196.84 1287.71 3218.77 1272.87L3234.19 1260.13 3234.19 1057.41 3218.77 1044.67C3196.84 1029.83 3170.4 1021.17 3141.94 1021.17ZM3234.19 649 3303 649 3303 1367.87 3234.19 1367.87 3234.19 1354.68 3226.38 1358.93C3200.42 1369.92 3171.89 1376 3141.94 1376 3022.13 1376 2925 1278.74 2925 1158.77 2925 1038.8 3022.13 941.539 3141.94 941.539 3171.89 941.539 3200.42 947.617 3226.38 958.61L3234.19 962.856Z"/><path d="M2005.84 1020.78C1929.98 1020.78 1868.49 1082.41 1868.49 1158.42 1868.49 1234.44 1929.98 1296.06 2005.84 1296.06 2034.29 1296.06 2060.72 1287.4 2082.64 1272.56L2096.22 1261.33 2096.22 1055.52 2082.64 1044.29C2060.72 1029.45 2034.29 1020.78 2005.84 1020.78ZM2096.22 933 2165 933 2165 1446.31 2164.13 1446.31 2160.9 1478.43C2143.57 1563.3 2076.86 1630.15 1992.16 1647.52L1957.66 1651 1957.66 1650.91 1804.75 1650.91 1804.75 1581.99 1957.66 1581.99 1957.66 1580.75 1978.03 1578.69C2035.35 1566.94 2080.49 1521.71 2092.22 1464.28L2094.43 1442.29 2096.22 1442.29 2096.22 1355.39 2090.25 1358.64C2064.3 1369.63 2035.78 1375.71 2005.84 1375.71 1886.08 1375.71 1789 1278.43 1789 1158.42 1789 1038.42 1886.08 941.136 2005.84 941.136 2035.78 941.136 2064.3 947.216 2090.25 958.211L2096.22 961.461Z"/><path d="M2851.14 933C2866.12 933 2880.75 934.522 2894.87 937.419L2909 941.816 2909 1025.93 2904.64 1023.55C2888.2 1016.58 2870.12 1012.73 2851.14 1012.73 2813.19 1012.73 2778.84 1028.15 2753.97 1053.08L2744.81 1064.2 2744.81 1368 2676 1368 2676 1066.54 2676 1023.11 2676 933 2744.81 933 2744.81 961.998 2766.69 950.092C2792.65 939.086 2821.19 933 2851.14 933Z"/><path d="M1375.11 646 1375.11 647.564 1468 647.564 1468 716.454 1372.78 716.454 1354.72 718.276C1297.34 730.023 1252.14 775.238 1240.4 832.644L1238.19 854.615 1237.11 854.615 1237.11 941.173 1358.43 941.173 1358.43 1010.06 1237.11 1010.06 1237.11 1366 1168.25 1366 1168.25 854.615 1168 854.615 1171.64 818.493C1188.99 733.66 1255.78 666.843 1340.57 649.484Z"/></svg>
